<svg xmlns="http://www.w3.org/2000/svg" viewBox="0 0 800 109.6">
	<rect width="109.6" height="109.65" rx="22.3" ry="22.3" fill="#00a4de"/>
	<g fill="#fff">
		<path d="M161 101.8a11.8 11.8 0 0 0-8.3-3.7c3.2-.9 5.4-2.1 6.9-3.8a9.9 9.9 0 0 0 2.2-6.7 12.1 12.1 0 0 0-1.4-5.9 10.7 10.7 0 0 0-4.2-4.1 17.9 17.9 0 0 0-5.7-1.9 86.8 86.8 0 0 0-11.8-.5h-13.8v49.8h14.1a91.3 91.3 0 0 0 12.2-.6 19.9 19.9 0 0 0 6.3-2 11.5 11.5 0 0 0 4.8-4.7 14.3 14.3 0 0 0 1.7-7 12.8 12.8 0 0 0-3-8.9zm-23.5-15.7h2.9q5.1 0 6.8 1.1a4.4 4.4 0 0 1 1.7 3.9 4.1 4.1 0 0 1-1.9 3.8c-1.3.7-3.5 1.1-6.9 1.1h-2.7v-10zm11.6 28.6c-1.3.8-3.6 1.2-6.8 1.2h-4.7v-10.9h5c3.3 0 5.6.4 6.8 1.2s1.8 2.3 1.8 4.4a4.3 4.3 0 0 1-2.1 4.1z" transform="translate(-100 -45.2)"/>
		<circle cx="78.4" cy="73.4" r="6.3"/>
		<path d="M72.9 29.9h11v33.23h-11z"/>
	</g>
	<g fill="#444">
		<path d="M251.6 131.6a27.3 27.3 0 0 0-.4-2.9 142 142 0 0 1-2-23.8 133.8 133.8 0 0 1 1.5-19.9c.4-2.2.4-2.2 2-10.7a40.2 40.2 0 0 0 .8-5.5v-.3l10.1 1c-3.1 6.5-5.9 24.6-6 37.6-.1 2.7-.1 2.7-.1 3.9v1.2a12.7 12.7 0 0 1-.1 1.6h.1l.9-2.2c.1-.5.5-1.3.9-2.5l1.4-3.4a14.3 14.3 0 0 0 .9-2.3l6.2 2.8c-4.4 8.7-7.4 18-7.4 22.9a14.7 14.7 0 0 0 .1 2zm16.9-49c3.5.9 7.4 1.2 13.5 1.2h7c0-4.4-.1-8.2-.1-11.2a21 21 0 0 0-.2-3.6l9.4-.2a73.3 73.3 0 0 0-.5 11v3.2a75.3 75.3 0 0 0 10.1-1.8l1.6-.6h.6l.3 8.5-2.2.4c-2.5.5-6.4 1.2-10.4 1.6v1.6c0 4.2 0 4.3.7 16.9a59.7 59.7 0 0 1 11.8 6.8l2.1 1.3-3.6 9.1a28 28 0 0 0-5.6-4.8l-4.7-3.1v1a13.1 13.1 0 0 1-.6 4.2c-1.7 4.4-7 7-14.2 7-9.8 0-15.8-4.6-15.8-12.3s6.4-12.4 15.4-12.4a17.8 17.8 0 0 1 6.7 1c-.2-1.9-.3-5.5-.6-15.9h-6.7c-2.8 0-5.8-.1-9.3-.4h-4.7v-8.5zm15.2 31.4c-4.8 0-7.8 1.9-7.8 4.9s2.7 4.6 6.9 4.6 4.9-.8 6.1-2.3 1-2 1-4v-2a15.7 15.7 0 0 0-6.2-1.3zM321.6 76.8h2.8l12.4-.7 37.4-1.9c6.1-.3 7.3-.4 8.6-.7l.5 9.6h-1.6a33.5 33.5 0 0 0-14.8 4c-9.5 4.9-15.1 12.4-15.1 20 0 5.8 3.7 10.3 10 12.2a45.4 45.4 0 0 0 11.2 1.9h1.5l-1.3 10.2-2.5-.4c-8.2-1-13-2.4-17.5-4.9a20 20 0 0 1-10.7-18 26.4 26.4 0 0 1 7.1-17.7c2.8-3.1 5.5-5 10.4-7.5-6.1.9-9 1.1-25.2 2.3a108.7 108.7 0 0 0-12.4 1.5zM422.2 67.7a37.5 37.5 0 0 0-1.2 5c-.4 1.8-.7 3.3-1.6 6.6a64.2 64.2 0 0 0 12-2.1l.2 8.6-2.4.4c-2.7.4-7.3 1-11.9 1.3a143.7 143.7 0 0 1-8.2 21.7c-1.7 3.7-2.4 5-5.2 10.3l-1.4 2.7-8.6-4.8a68.2 68.2 0 0 0 7.3-12 115.2 115.2 0 0 0 7-17.7h-11.7v-8.5a52 52 0 0 0 10.1.7h3.8a76.4 76.4 0 0 0 2.2-13zm33.9 60.6a45.3 45.3 0 0 0-11.5-9.3c.1.7.1 1.2.1 1.5a12 12 0 0 1-3.2 7.9c-2.6 2.7-7.1 4.2-12.4 4.2-9.9 0-16.3-4.9-16.3-12.6s6.7-12.9 16.2-12.9a37.2 37.2 0 0 1 7 .7c-.2-3.4-.4-6.4-.4-8.6a39.7 39.7 0 0 1 .6-7.6l8.7.4a25 25 0 0 0-.9 7.6 79.5 79.5 0 0 0 .7 10.3c5.4 2.4 6.1 2.8 11.8 6.9a27.6 27.6 0 0 1 2.6 2l1.1 1zm-26.6-13.7c-4.9 0-8 2-8 5.2s2.7 4.9 7.3 4.9 7.6-2.1 7.6-6.3c0-.7-.1-2.5-.1-2.5a18.9 18.9 0 0 0-6.7-1.2zm27-20.7a91.6 91.6 0 0 0-21.5-10.4l4.5-7.3a118.2 118.2 0 0 1 21.1 10zM529.1 80.4a11.2 11.2 0 0 0-1.3 3.4c-3.7 14.3-8.2 23.3-15.3 31.4s-15.3 13.7-27.8 19.1a27.5 27.5 0 0 0-6.6-8.9 60.9 60.9 0 0 0 16.4-7.6c11.7-7.6 19-18.1 22.7-32.6h-35.7a59.4 59.4 0 0 0-9.4.4v-9.9a52.7 52.7 0 0 0 9.6.5h34.3a44.2 44.2 0 0 0 6.6-.4 41.2 41.2 0 0 0-5-7.4l5.7-2.4a42.8 42.8 0 0 1 6.5 10.2l-3.4 1.5zm3.5-4.9a49.2 49.2 0 0 0-6.4-10l5.5-2.4a42.5 42.5 0 0 1 6.5 9.7zM558 85.8c3.1 5.8 4.6 9.4 7.3 17.7l-8.5 2.7a74.9 74.9 0 0 0-6.8-18.1zm43 .5a15.8 15.8 0 0 0-1 3.8c-2.2 10.2-5.5 18.4-10.3 24.9s-11.8 12.4-22.8 18a27.2 27.2 0 0 0-6-7.4 48.5 48.5 0 0 0 12.7-6.9c8.8-6.4 13.8-14 17-26a33.2 33.2 0 0 0 1.3-8.6zm-27-3.6c4 7.4 5.4 10.7 7.3 17.2l-8.3 2.6a82.3 82.3 0 0 0-7-17.5zM677.7 80.9a14.1 14.1 0 0 0-1.9 4.5c-3.4 11.4-8.8 21.5-15.3 28.9s-15.1 13.7-26.7 19a23.1 23.1 0 0 0-6.4-7.9c7.5-3.1 11.7-5.3 16.4-8.8 10.7-7.9 17.7-18.2 21.9-31.6l-22.5.4a73.3 73.3 0 0 1-17.5 19.2c-2.2-3.1-3.4-4-7.3-6.4 8.5-5.8 13.9-11.8 19.4-21.7 2.3-4.3 3.5-7.2 3.8-9.9l10.3 2a15.3 15.3 0 0 0-1.3 2.3 15.1 15.1 0 0 0-1 2.1l-1 1.9a17.6 17.6 0 0 1-1.2 2.4h3.6l16.4-.2a13.3 13.3 0 0 0 5.5-.7zM708.5 92.9c4 3.3 6.2 5.3 9.3 8.3l4.6 4.6a91.9 91.9 0 0 0 9.8-9.4 99.1 99.1 0 0 0 9.1-12.2l.4-.7v-.3l-3.4.2h-35.5a81.2 81.2 0 0 0-9.6.4v-9.6a54.6 54.6 0 0 0 9.7.5h41.6a19.6 19.6 0 0 0 6.2-.6l5.2 5.9a23.3 23.3 0 0 0-3.3 4.4 115.8 115.8 0 0 1-24.2 28.4c3.1 3.6 6 7.2 9.9 12.5l-7.9 6.3a123.2 123.2 0 0 0-14.4-18.9 120.8 120.8 0 0 0-15-14.4z" transform="translate(-100 -45.2)"/>
		<path d="M665.7 49.7c3.3.4 4.7.5 12.1.5h39.9c7.4 0 8.8-.1 12.1-.5v10.4c-3-.4-3.8-.4-12.2-.4h-39.7c-8.4 0-9.2 0-12.2.4v-10.4z"/>
		<path d="M900 80.9a14.1 14.1 0 0 0-1.9 4.5c-3.4 11.4-8.8 21.5-15.3 28.9s-15.1 13.7-26.7 19a23.1 23.1 0 0 0-6.4-7.9c7.5-3.1 11.7-5.3 16.4-8.8 10.7-7.9 17.7-18.2 21.9-31.6l-22.5.4a73.3 73.3 0 0 1-17.5 19.2c-2.2-3.1-3.4-4-7.3-6.4 8.5-5.8 13.9-11.8 19.4-21.7 2.3-4.3 3.5-7.2 3.8-9.9l10.3 2a15.3 15.3 0 0 0-1.3 2.3 15.1 15.1 0 0 0-1 2.1l-1 1.9a17.6 17.6 0 0 1-1.2 2.4h3.6l16.4-.2a13.3 13.3 0 0 0 5.5-.7z" transform="translate(-100 -45.2)"/>
	</g>
</svg>